PathFileType	4	(X/Y/Z)	Patient4_TMGait_0pt7_01_right_40.trc.trc
DataRate	CameraRate	NumFrames	NumMarkers	Units	OrigDataRate	OrigDataStartFrame	OrigNumFrames
86.419753086420	86.419753086420	6	33	mm	86.419753086420	18	       141
Frame#	Time	Sacral			L.Shoulder			Chest			R.Shoulder			Neck			R.ASIS			L.ASIS			R.Thigh.Superior			R.Thigh.Lateral			R.Thigh.Inferior			R.Patella			L.Thigh.Superior			L.Thigh.Lateral			L.Thigh.Inferior			L.Patella			L.Shank.Superior			L.Shank.Lateral			L.Shank.Inferior			R.Shank.Superior			R.Shank.Lateral			R.Shank.Inferior			R.Heel			R.Midfoot.Superior			R.Midfoot.Lateral			R.Toe			L.Heel			L.Midfoot.Lateral			L.Midfoot.Superior			L.Toe			L.Elbow			L.Wrist			R.Elbow			R.Wrist			
		X1	Y1	Z1	X2	Y2	Z2	X3	Y3	Z3	X4	Y4	Z4	X5	Y5	Z5	X6	Y6	Z6	X7	Y7	Z7	X8	Y8	Z8	X9	Y9	Z9	X10	Y10	Z10	X11	Y11	Z11	X12	Y12	Z12	X13	Y13	Z13	X14	Y14	Z14	X15	Y15	Z15	X16	Y16	Z16	X17	Y17	Z17	X18	Y18	Z18	X19	Y19	Z19	X20	Y20	Z20	X21	Y21	Z21	X22	Y22	Z22	X23	Y23	Z23	X24	Y24	Z24	X25	Y25	Z25	X26	Y26	Z26	X27	Y27	Z27	X28	Y28	Z28	X29	Y29	Z29	X30	Y30	Z30	X31	Y31	Z31	X32	Y32	Z32	X33	Y33	Z33	

18	45.926714285714	854.945078223925	1009.590521154922	415.378605026312	1066.359950889226	1430.474498518901	237.645489174410	1158.109491241037	1352.761446962172	402.630363892454	1071.684931416112	1434.230730020130	571.644040493131	1065.670188797367	1490.557830827177	391.854279055614	1076.241488076327	945.663715825861	543.971639913921	1072.397395243859	954.693080277536	268.374151894094	1155.558023801031	779.747413077267	519.448473708228	1117.144030752209	656.849234037862	593.283080986616	1205.005325591479	622.588383489335	511.792831726574	1241.619993920011	540.160822243259	529.214782473417	1081.855448383953	730.639544706866	304.837645123250	971.398152800572	632.973715034505	237.934664253007	1029.512503200873	541.422090118238	307.246708265156	1014.600792979960	475.111079128737	318.000003407918	982.614403957537	407.757072246737	308.133865890736	882.234894007509	303.946426503638	256.068444544411	915.141401397247	188.754679376806	330.137037724919	1226.333866516238	449.686542638712	541.734434356807	1176.396443039466	336.667778052085	610.009417847327	1243.389887543288	249.913956215469	556.861341114707	1150.253716991302	61.995748301232	532.450816738855	1313.208657916322	137.837735421626	571.619575830779	1235.397302116772	59.725429994913	603.983682451841	1438.104762913810	100.167492028533	595.282366028344	773.400495671693	39.938789189289	370.518196260963	846.650571026761	35.845137482351	289.825641374918	931.007427305058	95.796937745285	316.766838398884	1058.828572661076	40.096550238093	286.618118462491	1125.741873919458	1109.939938167642	81.472504176703	1377.765924395019	1085.076528383219	109.963048849773	917.206349173168	1129.750395913338	692.630786195346	875.074544122389	873.588739414554	719.425653199257	
19	45.938285714286	856.586152210432	1007.590583354813	416.704122761174	1066.506540751539	1428.798385639391	238.505336026577	1158.521536177791	1351.615722947052	403.547600594671	1071.959330253801	1433.297436276921	572.347024605127	1065.785347082255	1489.080149845314	392.468885191974	1077.748560446834	943.872930331519	545.207143085138	1074.053735604863	953.102507259251	269.654644704276	1154.716293700330	775.061611745906	521.094422429819	1113.899902854887	652.655956233244	594.255841947349	1201.063628162106	617.519983618182	512.544076924187	1235.888978193022	535.946757195369	529.453527236053	1081.102518436466	728.635342832186	305.280167409740	969.260701648437	632.107298440529	238.596484980704	1026.550827465299	539.825113392013	307.388252592956	1010.914467030509	473.544444068780	318.164732645398	978.205566607686	406.597437144909	308.320482990954	876.581088279859	303.990458227901	256.140147365079	908.149584409324	188.335784911940	330.073838697271	1222.453129607986	445.553204308990	541.930051757701	1173.896655301045	331.283560678101	608.916492195603	1242.928525740415	246.018573897767	555.687010139636	1153.245360442655	56.796372620060	529.352641291406	1314.766989666437	134.795136245274	569.800811555765	1237.963863719851	55.559415884269	601.330468403388	1440.125580522348	99.049562289630	594.065374259603	765.243893054781	40.230482931640	370.353545317681	838.538058891375	35.918666511404	289.766033834930	922.977448023147	95.747142747029	316.663984776587	1050.684900023925	39.915836127745	286.588725981159	1128.989039255843	1108.855816396173	83.007799245740	1380.938896026214	1091.447604501615	114.074799407383	913.386144089275	1131.882150368531	693.599624093372	867.267012695809	876.364929351958	720.062508375574	
20	45.949857142857	858.363597832123	1005.432683050183	418.275390493350	1066.471287474299	1426.938184939645	239.449725660834	1158.908146578669	1350.447452714347	404.544397450040	1072.217859800825	1432.330166291825	573.158194066004	1065.766712061483	1487.516151242814	393.155837181134	1079.451779977810	941.924457661985	546.614957987478	1075.983741919928	951.428023844575	271.101878538876	1154.342432088434	770.502068038102	522.786689704026	1110.996842453591	648.438006773145	594.922625823464	1197.769282634203	612.637980717224	513.272633436202	1230.524766638126	531.458151318638	529.490677702728	1080.687858652878	726.608728050434	305.742855345495	967.441256233808	631.226838976379	239.401750101819	1024.038012201083	538.193838169428	307.563902768844	1007.733768517455	471.862440106720	318.356775861084	974.159905430651	405.347861887615	308.556578132660	871.148631283063	304.109840528409	256.248352964218	901.283496945243	187.947257613810	329.986267151254	1218.365719480826	441.081639296997	541.779825175597	1170.260271522596	326.012860229903	607.381434745620	1240.572158441303	241.765016567858	554.092343040321	1152.651341346388	52.473134437669	526.008770862293	1313.435929389103	130.934303761784	567.431684012253	1236.921114673482	51.604285273857	598.410423396339	1438.833383358117	95.880141630297	592.267809899114	757.090642799119	40.658547803364	370.127468106390	830.445309351361	36.048527849350	289.667487139214	914.985933055993	95.727535786027	316.517574174399	1042.550438242776	39.713492039732	286.541392847201	1131.832071405598	1107.354919862102	84.817680568083	1383.517200766189	1096.692251143702	118.273009906865	910.527288722187	1133.370152309620	694.535276006412	860.938659739644	878.408055685491	720.551300383333	
21	45.961428571429	860.237002961141	1003.207231723979	420.074932967925	1066.314631204836	1424.937534146935	240.475666846846	1159.294343315858	1349.282529077694	405.631529854908	1072.471226791079	1431.354405262380	574.084996422137	1065.662498288899	1485.916129901259	393.928168871310	1081.317311888461	939.890363440458	548.200002674608	1078.167056553843	949.734415200228	272.706188452069	1154.452818340484	766.144052492100	524.536735735483	1108.415014670942	644.284149942331	595.289028729738	1195.120642546116	608.017789513113	513.986331287968	1225.618014175293	526.823773417571	529.291466869618	1080.603896224423	724.607777275922	306.246596393003	965.955268166776	630.356299178006	240.358163826372	1022.006783376040	536.554641140901	307.783067185596	1005.104911977859	470.072732373376	318.574992473363	970.506002851809	404.028347833471	308.846583495773	865.965157105378	304.336359458879	256.399179639089	894.562927306871	187.620424443213	329.869544542735	1214.209800795436	436.413313159267	541.277460762146	1165.808843106185	320.935136022854	605.544973617938	1236.661049796667	237.241150481855	552.144553678176	1148.904294382817	48.950776459023	522.701002314276	1309.683427497422	126.388194777155	564.571188334022	1232.809147478219	47.915586861148	595.428166611145	1434.804636701171	90.894513674038	589.838092580608	748.946592978808	41.284883250458	369.835768041790	822.376652108422	36.260311921254	289.526728339349	907.053762307502	95.755369572878	316.313818477380	1034.428930969256	39.491491563543	286.474573282571	1134.242078734816	1105.449494902924	86.901746965595	1385.541943576161	1100.766625788246	122.537723384601	908.633993435276	1134.170330215375	695.454673351331	856.139883316358	879.661069991075	720.907641603405	
22	45.973000000000	862.161074759926	1001.022060219737	422.075980174310	1066.109046653562	1422.860160057720	241.575780464891	1159.708876518416	1348.158592046288	406.816380910439	1072.736657210927	1430.408646897194	575.130479571341	1065.534676760877	1484.346170616439	394.794965442393	1083.302353469768	937.867931388218	549.958785939840	1080.560714737077	948.107250913302	274.454000582148	1155.024481795870	762.058267988422	526.348214921819	1106.145831016944	640.319062041330	595.414817345929	1193.064182275170	603.742243139621	514.687663692078	1221.237353148823	522.210783784960	528.866620442021	1080.834987121666	722.695428779367	306.815024485758	964.820087342216	629.523141598540	241.471493578447	1020.495685882551	534.944073172867	308.057181536663	1003.080960809395	468.192787362608	318.814135724587	967.278265353908	402.669663045978	309.191073350752	861.065891985227	304.712701830807	256.599413604392	888.015593949672	187.395232882843	329.716805294812	1210.124781915296	431.732773490402	540.475943535624	1160.892363542176	316.168732316103	603.582282086566	1231.600316968686	232.607509391258	549.957517332959	1142.608347974220	46.170807628524	519.674284586263	1304.060935048030	121.405448555546	561.351634638423	1226.299453951879	44.594589374199	592.584821142759	1428.695048273598	84.524851628042	586.846385113347	740.823049717771	42.187499347531	369.478115611034	814.338128039310	36.587224465248	289.343185050097	899.211129203017	95.850143443277	316.035499741078	1026.325453893421	39.255177624918	286.387964917196	1136.182339071953	1103.167859005831	89.261987648452	1387.043237582906	1103.631493451373	126.852402211654	907.706296763746	1134.279195927008	696.378300430323	852.917783021597	880.101128550290	721.146826233549	
23	45.984571428571	864.086453211064	998.996820332546	424.242323928256	1065.934208009864	1420.789662309886	242.739207281079	1160.181581145122	1347.124733482680	408.102120647348	1073.037364087503	1429.545008080057	576.292662831269	1065.454603432819	1482.885742992128	395.760404539507	1085.352923030117	935.974968599790	551.880692363389	1083.097045704647	946.646636783926	276.330285870753	1155.994790278717	758.326117261157	528.213949409719	1104.202557447672	636.700968589515	595.405815734975	1191.512784858193	599.911461340958	515.377840677910	1217.431030785668	517.816800012392	528.281137226735	1081.361618520464	720.947124377059	307.475320053088	964.058570649000	628.757472631491	242.745353760209	1019.553491767851	533.408290501517	308.399562984941	1001.725340038114	466.251258377293	319.063917327294	964.521153062937	401.312360233009	309.585193808491	856.497043862190	305.292743934235	256.856056758584	881.681792023466	187.320302376465	329.518172288402	1206.242120877125	427.254330972308	539.484014135013	1155.849897641645	311.860226220233	601.684676674399	1225.813298797546	228.077404619840	547.682816229472	1134.463544952738	44.084630912809	517.109924480955	1297.137884268662	116.311059797208	557.967162733536	1218.114519132618	41.755577694272	590.054376942745	1421.167765331640	77.341688529057	583.480265256007	732.739801188559	43.460621619923	369.057952767381	806.339209940232	37.071832560075	289.119198998519	891.499080239994	96.031898282044	315.663174438404	1018.246449320006	39.013228029195	286.283088976178	1137.608858589379	1100.556866979507	91.902214123510	1388.038579415750	1105.250639733374	131.202341924592	907.739338132134	1133.736833483758	697.327054784695	851.315387846765	879.743488566283	721.283718072735	
